{"glyphs":{":":{"x_min":0,"x_max":243,"ha":243,"o":"m 195 410 q 195 393 189 378 q 183 363 173 352 q 163 341 149 335 q 136 329 120 329 q 93 329 79 344 q 64 358 64 388 q 64 405 70 420 q 76 435 86 446 q 97 457 110 463 q 124 469 139 469 q 165 469 180 454 q 195 439 195 410 z m 195 62 q 195 44 189 29 q 183 14 173 3 q 163 -7 149 -13 q 136 -20 120 -20 q 93 -20 79 -5 q 64 10 64 39 q 64 57 70 71 q 76 86 86 97 q 97 108 110 114 q 124 120 139 120 q 165 120 180 105 q 195 91 195 62 z"},"$":{"x_min":0,"x_max":481,"ha":481,"o":"m 120 467 q 120 449 127 436 q 134 422 147 412 q 160 401 177 392 q 195 383 215 375 l 215 541 q 189 540 171 533 q 153 526 142 516 q 130 505 125 493 q 120 480 120 467 z m 357 157 q 357 179 350 195 q 343 212 330 225 q 317 238 300 248 q 283 258 264 267 l 264 60 q 282 62 299 70 q 316 78 329 91 q 342 103 350 120 q 357 137 357 157 z m 264 -67 q 255 -75 248 -79 q 241 -82 229 -85 l 215 -73 l 215 -5 q 170 -4 130 9 q 90 22 47 49 q 44 52 42 67 q 41 82 41 102 q 42 122 43 143 q 45 164 49 177 l 75 175 q 98 125 134 96 q 169 67 215 61 l 215 286 q 184 297 154 309 q 123 322 99 339 q 75 357 60 382 q 45 407 45 444 q 45 465 54 489 q 62 512 82 533 q 102 554 134 570 q 167 586 215 591 l 215 660 q 222 664 225 666 q 229 668 232 670 q 235 671 239 673 q 242 674 250 676 l 264 664 l 264 593 q 287 592 310 588 q 333 584 352 578 q 372 572 387 564 q 403 556 412 546 q 415 543 411 532 q 408 521 401 508 q 394 495 386 483 q 377 471 371 465 l 347 469 q 310 521 264 536 l 264 357 q 295 345 326 332 q 356 318 381 298 q 405 278 420 250 q 436 223 436 183 q 436 154 425 124 q 415 94 393 68 q 372 42 340 24 q 308 5 264 -1 z"},"?":{"x_min":0,"x_max":440,"ha":440,"o":"m 403 569 q 403 532 392 503 q 380 473 362 448 q 344 422 323 399 q 301 375 283 351 q 264 327 251 300 q 238 273 235 241 l 232 194 q 223 187 214 182 q 205 178 191 174 l 178 185 l 174 241 q 173 269 182 296 q 191 323 206 349 q 221 375 239 401 q 256 427 272 451 q 287 476 297 500 q 308 523 308 547 q 308 607 283 640 q 258 672 212 672 q 196 672 182 665 q 167 658 156 645 q 146 632 139 615 q 133 598 133 579 q 133 572 135 564 q 136 557 139 550 q 131 546 120 542 q 110 539 98 536 q 87 533 75 531 q 63 528 52 527 l 38 543 q 37 547 37 553 l 37 562 q 37 596 54 626 q 71 655 101 677 q 130 698 168 710 q 207 723 249 723 q 286 723 315 711 q 344 700 364 680 q 383 660 393 631 q 403 603 403 569 z m 274 62 q 274 44 269 29 q 263 14 253 3 q 243 -7 229 -13 q 215 -20 200 -20 q 173 -20 158 -5 q 144 10 144 39 q 144 57 150 71 q 156 86 166 97 q 176 108 190 114 q 204 120 219 120 q 244 120 259 105 q 274 91 274 62 z"},"<":{"x_min":0,"x_max":444,"ha":444,"o":"m 416 159 q 405 149 396 141 q 386 132 371 123 l 42 244 l 28 258 l 30 265 l 32 272 q 36 285 39 295 q 40 299 42 302 q 43 305 44 308 l 45 310 l 402 442 l 416 429 q 414 424 412 417 q 410 410 408 402 q 406 394 404 387 q 402 380 400 375 l 133 277 l 406 178 z"},"'":{"x_min":0,"x_max":257,"ha":257,"o":"m 157 407 q 153 405 147 403 q 141 401 133 400 q 126 398 119 398 q 111 397 105 397 l 75 691 q 80 694 92 699 q 104 704 118 709 q 131 714 143 718 q 155 722 161 723 l 183 711 z"},"=":{"x_min":0,"x_max":444,"ha":444,"o":"m 416 217 q 413 207 407 193 q 402 180 399 171 l 42 171 l 28 185 q 31 195 36 208 q 42 220 46 230 l 402 230 z m 416 363 q 414 358 412 352 q 410 346 407 340 q 405 333 403 328 q 400 322 399 317 l 42 317 l 28 331 q 31 341 36 354 q 42 367 46 376 l 402 376 z"},"a":{"x_min":0,"x_max":473,"ha":473,"o":"m 182 56 q 207 56 237 70 q 267 83 304 115 l 304 235 q 267 229 243 223 q 218 217 202 211 q 186 205 177 198 q 167 192 160 184 q 147 171 139 155 q 131 139 131 117 q 131 98 137 86 q 142 75 150 68 q 158 61 167 59 q 175 56 182 56 z m 467 45 q 425 16 393 1 q 360 -15 345 -15 q 328 -15 317 7 q 306 29 304 68 q 282 45 260 30 q 238 14 218 4 q 197 -6 178 -10 q 159 -15 143 -15 q 125 -15 106 -9 q 87 -2 72 11 q 56 24 46 44 q 37 65 37 93 q 37 129 49 153 q 62 178 80 196 q 92 208 107 218 q 122 229 147 239 q 171 249 209 258 q 247 267 304 275 l 304 340 q 304 356 301 370 q 297 384 289 394 q 280 404 265 410 q 250 416 229 415 q 214 415 200 410 q 187 405 176 397 q 165 389 159 377 q 153 365 155 350 q 155 347 149 343 q 143 339 134 335 q 124 332 113 328 q 101 325 90 322 q 79 320 70 319 q 61 317 57 318 l 49 340 q 61 366 84 389 q 108 413 139 430 q 170 448 205 458 q 240 469 274 469 q 333 469 362 439 q 392 409 392 359 l 392 97 q 392 76 397 67 q 403 59 412 59 q 418 59 429 61 q 439 63 458 72 z"},"L":{"x_min":0,"x_max":487,"ha":487,"o":"m 473 129 q 471 108 469 88 q 466 68 463 51 q 460 33 458 20 q 455 7 453 0 l 23 0 l 23 26 q 57 33 75 41 q 93 49 93 56 l 93 559 q 93 565 76 574 q 59 583 23 589 l 23 615 l 255 615 l 255 589 q 222 583 204 574 q 186 566 186 559 l 186 85 q 186 76 190 70 q 194 63 204 58 q 214 54 232 51 q 250 49 276 49 l 341 49 q 364 49 379 52 q 395 56 406 65 q 418 75 427 93 q 437 110 447 139 z"},"3":{"x_min":0,"x_max":481,"ha":481,"o":"m 417 186 q 417 145 403 108 q 389 72 362 44 q 335 17 296 1 q 257 -15 207 -15 q 188 -15 167 -11 q 146 -7 124 2 q 102 11 79 25 q 57 40 35 61 l 52 98 q 74 82 93 71 q 112 60 129 53 q 146 46 163 43 q 180 41 198 41 q 226 41 249 49 q 272 58 289 75 q 305 92 314 116 q 324 140 324 171 q 324 207 312 232 q 301 256 284 272 q 267 287 246 294 q 225 301 205 301 l 194 301 q 191 301 188 300 q 185 300 181 299 q 177 299 169 297 l 162 332 q 206 343 232 359 q 259 375 273 392 q 287 409 292 427 q 296 444 296 459 q 296 476 291 493 q 287 510 277 524 q 267 538 251 547 q 236 556 214 556 q 197 556 183 549 q 169 542 160 531 q 150 520 147 504 q 143 489 146 473 q 129 463 109 457 q 88 451 65 449 l 51 469 q 51 489 66 513 q 81 536 107 556 q 133 577 168 590 q 203 603 242 603 q 281 603 309 591 q 337 580 355 560 q 373 541 381 517 q 390 493 390 468 q 390 449 382 431 q 375 413 361 396 q 348 379 329 365 q 310 351 286 341 q 314 337 338 324 q 362 311 380 290 q 397 269 407 242 q 417 216 417 186 z"},";":{"x_min":0,"x_max":243,"ha":243,"o":""},"J":{"x_min":0,"x_max":315,"ha":315,"o":"m 282 589 q 249 583 231 574 q 212 566 212 559 l 212 97 q 212 40 204 1 q 195 -38 180 -65 q 166 -92 147 -111 q 128 -129 109 -145 q 96 -155 80 -164 q 64 -173 47 -179 q 31 -185 15 -188 q 0 -192 -12 -192 q -29 -192 -46 -187 q -62 -182 -76 -176 q -89 -169 -97 -162 q -105 -155 -105 -150 q -105 -146 -97 -137 q -90 -128 -79 -119 q -69 -110 -58 -102 q -47 -94 -40 -92 q -26 -102 -15 -108 q -4 -114 5 -118 q 15 -122 24 -123 q 33 -125 42 -125 q 55 -125 69 -117 q 83 -109 94 -89 q 105 -68 112 -32 q 120 4 120 62 l 120 559 q 120 562 116 565 q 112 569 102 573 q 92 577 73 581 q 55 585 26 589 l 26 615 l 282 615 z"},"V":{"x_min":0,"x_max":655,"ha":655,"o":"m 636 589 q 603 583 584 577 q 565 571 561 557 l 375 33 q 371 22 361 14 q 351 6 339 0 q 327 -6 314 -9 q 302 -13 294 -15 l 77 557 q 72 570 56 578 q 40 585 9 589 l 9 615 l 233 615 l 233 589 q 194 586 180 579 q 167 572 172 558 l 340 113 l 498 557 q 503 571 487 578 q 471 584 431 589 l 431 615 l 636 615 z"},"\"":{"x_min":0,"x_max":439,"ha":439,"o":"m 157 407 q 153 405 147 403 q 141 401 133 400 q 126 398 119 398 q 111 397 105 397 l 75 691 q 80 694 92 699 q 104 704 118 709 q 131 714 143 718 q 155 722 161 723 l 183 711 z m 339 407 q 335 405 329 403 q 323 401 315 400 q 308 398 301 398 q 293 397 288 397 l 257 691 q 262 694 274 699 q 287 704 300 709 q 313 714 326 718 q 338 722 343 723 l 365 711 z"},"7":{"x_min":0,"x_max":481,"ha":481,"o":"m 444 570 q 422 517 399 464 q 377 410 355 358 q 334 306 314 257 q 295 208 278 164 q 262 121 249 85 q 235 49 227 23 q 210 11 186 1 q 163 -8 138 -15 l 117 3 q 159 78 193 144 q 226 210 255 272 q 283 334 309 394 q 335 454 362 517 l 141 517 q 134 517 127 516 q 120 515 112 509 q 104 502 95 487 q 86 472 76 443 l 50 453 q 51 464 54 483 q 57 501 60 521 q 62 541 66 559 q 69 578 72 588 l 428 588 z"},"S":{"x_min":0,"x_max":488,"ha":488,"o":"m 446 184 q 446 162 440 139 q 434 116 421 94 q 409 72 390 52 q 372 32 346 18 q 321 3 290 -6 q 258 -15 220 -15 q 203 -15 183 -11 q 163 -8 141 -2 q 120 4 99 13 q 79 22 62 33 q 58 35 56 51 q 55 66 55 87 q 55 108 57 131 q 59 153 63 168 l 88 166 q 99 137 116 115 q 132 93 153 78 q 173 63 196 55 q 220 48 245 48 q 267 48 288 56 q 310 64 327 78 q 344 93 355 113 q 365 132 365 156 q 365 186 352 207 q 339 229 317 245 q 296 262 269 276 q 241 289 212 302 q 184 315 156 330 q 129 345 107 365 q 86 384 73 410 q 60 436 60 471 q 60 494 71 522 q 82 549 106 573 q 131 598 170 614 q 208 630 264 630 q 288 630 311 626 q 334 623 354 617 q 375 611 391 603 q 407 595 416 585 q 419 582 416 572 q 412 562 405 550 q 398 538 390 527 q 382 516 376 510 l 354 513 q 341 531 326 544 q 312 557 296 564 q 281 572 266 575 q 250 579 237 579 q 210 579 192 571 q 173 563 161 552 q 149 540 143 525 q 138 510 138 497 q 138 474 151 456 q 164 438 186 423 q 208 408 235 395 q 263 381 292 366 q 321 352 348 335 q 376 318 398 297 q 419 275 433 248 q 446 220 446 184 z"},"}":{"x_min":0,"x_max":341,"ha":341,"o":"m 294 315 q 237 300 209 272 q 182 243 182 206 q 182 187 183 173 q 185 159 187 147 q 189 135 191 124 q 194 114 196 102 q 198 90 200 76 q 201 62 201 42 q 201 9 189 -20 q 177 -48 155 -72 q 132 -97 101 -117 q 70 -137 32 -154 l 17 -125 q 36 -114 52 -99 q 68 -84 80 -67 q 92 -49 99 -29 q 105 -9 105 14 q 105 42 102 60 q 99 79 95 95 q 92 112 89 131 q 86 150 86 178 q 86 198 92 217 q 99 237 110 254 q 122 271 139 285 q 156 299 177 308 q 127 317 107 352 q 86 386 86 440 q 86 468 89 490 q 92 511 95 530 q 99 548 102 567 q 105 585 105 609 q 105 634 102 653 q 99 673 89 689 q 80 705 63 719 q 47 732 21 747 l 35 781 q 78 765 109 747 q 140 729 161 707 q 181 685 191 658 q 201 630 201 595 q 201 567 198 548 q 195 528 191 510 q 188 492 185 471 q 182 451 182 422 q 182 382 200 363 q 219 344 254 344 l 269 344 q 271 344 275 345 l 286 347 z"},"Z":{"x_min":0,"x_max":530,"ha":530,"o":"m 493 153 q 492 137 491 117 q 490 96 490 75 q 489 54 488 34 q 487 14 487 0 l 43 0 l 28 23 l 369 562 l 156 562 q 148 562 138 555 q 129 549 120 536 q 111 523 103 504 q 95 485 89 459 l 57 466 l 72 623 q 85 620 96 618 q 107 617 118 616 q 128 615 140 615 l 474 615 l 488 593 l 149 54 l 394 54 q 404 54 413 59 q 421 65 428 77 q 436 90 444 110 q 452 131 461 161 z"},"x":{"x_min":0,"x_max":509,"ha":509,"o":"m 292 0 l 292 26 q 304 27 314 29 q 325 31 331 35 q 336 40 336 47 q 336 55 326 68 l 238 188 l 151 68 q 141 55 143 47 q 144 40 152 35 q 160 31 171 29 q 183 27 195 26 l 195 0 l 9 0 l 9 26 q 28 29 41 33 q 54 38 64 44 q 73 50 80 57 q 86 64 92 71 l 208 229 l 96 385 q 89 394 83 401 q 77 409 68 414 q 59 419 46 423 q 33 427 14 428 l 14 454 l 231 454 l 231 428 q 216 427 206 424 q 195 422 190 417 q 186 413 187 405 q 188 397 197 386 l 267 289 l 337 386 q 346 397 348 405 q 349 413 345 417 q 340 422 330 424 q 320 427 305 428 l 305 454 l 491 454 l 491 428 q 471 427 456 423 q 442 419 431 414 q 420 409 412 401 q 404 394 397 385 l 297 248 l 425 71 q 431 64 438 57 q 444 50 453 44 q 462 38 474 33 q 486 28 502 26 l 502 0 z"},")":{"x_min":0,"x_max":322,"ha":322,"o":"m 266 324 q 266 244 250 170 q 233 96 203 33 q 173 -29 131 -77 q 88 -125 37 -154 l 18 -127 q 48 -100 76 -57 q 103 -15 124 41 q 145 96 156 164 q 168 231 168 310 q 168 381 159 448 q 149 514 130 572 q 110 629 82 676 q 54 723 18 754 l 37 781 q 94 754 137 708 q 180 662 208 603 q 237 543 252 472 q 266 401 266 324 z"},"&":{"x_min":0,"x_max":676,"ha":676,"o":"m 226 552 q 226 524 233 494 q 241 465 255 434 q 285 451 304 469 q 323 486 334 504 q 345 521 349 539 q 354 556 354 572 q 354 589 349 604 q 345 618 337 629 q 329 640 317 646 q 305 652 290 652 q 273 652 261 644 q 250 635 241 621 q 233 607 229 589 q 226 571 226 552 z m 265 46 q 302 46 334 57 q 366 69 392 88 q 368 112 343 141 q 317 169 293 200 q 269 231 247 265 q 225 298 206 333 q 185 313 171 294 q 157 276 148 258 q 139 239 135 220 q 132 202 132 182 q 132 148 143 122 q 155 97 173 80 q 192 63 216 54 q 240 46 265 46 z m 668 365 q 656 350 643 337 q 630 324 618 316 q 609 320 598 324 q 587 328 576 330 q 565 333 555 335 q 544 336 536 337 q 541 329 544 321 q 547 314 549 306 q 551 297 552 288 q 552 278 552 265 q 552 231 537 193 q 522 155 495 119 q 509 105 522 94 q 536 82 549 72 q 570 54 593 49 q 616 44 644 50 l 649 24 q 628 15 608 8 q 588 0 572 -4 q 556 -9 544 -12 q 532 -15 527 -15 q 516 -15 490 3 q 463 21 429 52 q 391 22 344 4 q 297 -15 246 -15 q 198 -15 160 -3 q 121 9 94 33 q 66 56 52 91 q 37 126 37 172 q 37 226 73 280 q 109 335 180 386 q 165 422 156 456 q 147 491 147 524 q 147 563 161 597 q 175 631 198 656 q 222 680 252 694 q 283 708 317 708 q 350 708 373 698 q 396 688 410 671 q 424 655 431 633 q 438 611 438 588 q 438 562 428 538 q 418 513 400 490 q 383 466 359 445 q 334 424 306 406 l 278 388 q 295 357 316 327 q 336 296 360 267 q 383 238 407 210 q 431 182 456 157 q 469 179 476 202 q 483 225 483 245 q 483 266 477 283 q 470 301 459 313 q 448 326 434 333 q 420 341 406 341 l 395 355 q 397 358 402 363 q 406 367 412 371 q 417 375 423 379 q 428 382 433 384 l 656 384 z"},"_":{"x_min":0,"x_max":474,"ha":474,"o":"m 444 -77 q 443 -83 441 -89 q 439 -95 437 -102 q 435 -108 432 -115 q 430 -121 428 -125 l 42 -125 l 28 -111 q 31 -101 36 -87 q 42 -74 46 -64 l 432 -64 z"},"v":{"x_min":0,"x_max":498,"ha":498,"o":"m 489 428 q 475 425 466 422 q 457 419 451 415 q 445 412 442 407 q 439 402 437 395 l 298 33 q 294 22 285 14 q 277 6 267 0 q 256 -6 246 -9 q 235 -13 227 -15 l 62 395 q 57 409 45 416 q 33 423 9 428 l 9 454 l 208 454 l 208 428 q 189 426 177 423 q 166 421 160 417 q 154 414 153 408 q 152 403 155 395 l 271 104 l 378 395 q 381 402 381 407 q 380 413 375 416 q 370 420 360 423 q 349 425 332 428 l 332 454 l 489 454 z"},"O":{"x_min":0,"x_max":607,"ha":607,"o":"m 474 307 q 474 341 468 374 q 462 406 451 436 q 440 465 425 490 q 409 515 389 533 q 369 551 345 561 q 322 571 295 571 q 254 571 222 553 q 190 535 168 502 q 146 468 135 420 q 124 373 124 313 q 124 258 138 210 q 152 161 176 125 q 200 89 233 68 q 265 46 301 46 q 339 46 371 63 q 402 80 425 112 q 448 145 461 194 q 474 243 474 307 z m 565 316 q 565 250 543 190 q 521 130 482 84 q 443 39 393 12 q 342 -15 285 -15 q 225 -15 178 11 q 131 37 98 81 q 66 124 49 181 q 32 237 32 299 q 32 365 53 425 q 75 485 113 531 q 150 576 202 603 q 253 630 313 630 q 375 630 422 603 q 469 577 501 533 q 533 489 549 432 q 565 375 565 316 z"},"(":{"x_min":0,"x_max":322,"ha":322,"o":"m 286 -154 q 229 -126 186 -80 q 143 -34 114 25 q 85 85 71 156 q 57 227 57 304 q 57 384 73 458 q 89 532 119 594 q 149 657 192 705 q 234 753 286 781 l 305 754 q 274 727 247 685 q 219 643 199 587 q 178 532 166 464 q 154 396 154 318 q 154 247 164 180 q 174 114 193 56 q 212 -2 240 -49 q 269 -95 305 -127 z"},"C":{"x_min":0,"x_max":543,"ha":543,"o":"m 506 103 q 475 70 446 48 q 417 25 389 11 q 361 -2 334 -9 q 308 -15 281 -15 q 235 -15 190 6 q 145 26 110 65 q 75 104 53 159 q 32 215 32 286 q 32 364 55 428 q 79 491 120 536 q 161 581 216 605 q 271 630 333 630 q 359 630 383 626 q 407 622 428 615 q 449 609 467 600 q 484 591 497 581 q 500 579 495 569 q 490 559 482 547 q 474 535 465 524 q 456 512 450 506 l 428 511 q 403 540 370 556 q 336 573 294 573 q 277 573 258 567 q 239 561 220 548 q 201 535 184 514 q 166 494 153 464 q 140 434 132 395 q 124 355 124 304 q 124 240 142 193 q 160 145 188 114 q 216 82 251 67 q 287 51 320 51 q 333 51 351 55 q 369 59 390 68 q 411 77 435 92 q 459 107 485 129 q 488 127 491 124 q 494 120 497 116 q 500 112 502 108 q 504 104 506 103 z"},"W":{"x_min":0,"x_max":850,"ha":850,"o":"m 836 589 q 814 585 800 581 q 786 577 778 573 q 770 570 766 566 q 762 563 762 559 l 650 29 q 647 19 639 11 q 631 3 621 -2 q 610 -7 599 -10 q 588 -13 581 -15 l 419 450 l 279 29 q 276 19 267 11 q 259 4 248 -1 q 237 -6 226 -10 q 214 -13 204 -15 l 77 555 q 75 567 60 575 q 44 583 10 589 l 10 615 l 229 615 l 229 589 q 205 587 192 583 q 178 580 172 575 q 165 571 164 566 q 163 561 164 555 l 256 144 l 410 615 l 444 615 l 613 144 l 701 559 q 702 565 696 569 q 691 574 681 577 q 670 581 656 583 q 642 586 625 589 l 625 615 l 836 615 z"},"A":{"x_min":0,"x_max":606,"ha":606,"o":"m 368 264 l 284 507 l 204 264 z m 188 215 l 136 59 q 131 44 149 37 q 167 30 207 26 l 207 0 l 0 0 l 0 26 q 33 32 52 38 q 71 44 76 59 l 254 599 q 270 614 290 625 q 311 636 328 643 l 533 59 q 536 52 540 47 q 544 42 551 38 q 559 34 570 31 q 581 28 596 26 l 596 0 l 378 0 l 378 26 q 416 28 430 36 q 444 43 439 59 l 385 215 z"},"f":{"x_min":0,"x_max":321,"ha":321,"o":"m 411 710 q 411 705 403 695 q 395 686 384 676 q 373 667 362 658 q 350 649 343 646 q 319 669 297 680 q 274 691 260 691 q 247 691 234 683 q 220 674 209 653 q 198 631 190 593 q 183 555 183 496 l 183 454 l 308 454 l 323 439 q 319 432 312 423 q 306 415 299 408 q 292 400 286 395 q 280 389 275 386 q 264 392 243 397 q 222 403 183 403 l 183 55 q 183 52 188 49 q 193 46 205 43 q 217 40 236 35 q 255 31 284 26 l 284 0 l 28 0 l 28 26 q 62 32 79 40 q 95 49 95 55 l 95 403 l 32 403 l 21 418 l 59 454 l 95 454 l 95 469 q 95 521 102 558 q 109 595 122 622 q 134 649 151 668 q 168 688 188 705 q 202 717 219 727 q 236 737 253 743 q 269 750 284 753 q 299 757 311 757 q 328 757 346 751 q 364 745 378 738 q 393 730 402 722 q 411 714 411 710 z"},"Q":{"x_min":0,"x_max":607,"ha":607,"o":"m 474 307 q 474 341 468 374 q 462 406 451 436 q 440 465 425 490 q 409 515 389 533 q 369 551 345 561 q 322 571 295 571 q 254 571 222 553 q 190 535 168 502 q 146 468 135 420 q 124 373 124 313 q 124 258 138 210 q 152 161 176 125 q 200 89 233 68 q 265 46 301 46 q 339 46 371 63 q 402 80 425 112 q 448 145 461 194 q 474 243 474 307 z m 648 -59 q 636 -80 624 -97 q 611 -115 599 -127 q 586 -139 576 -146 q 565 -153 558 -153 q 537 -153 516 -146 q 495 -139 474 -127 q 454 -115 433 -100 q 412 -85 391 -70 q 371 -54 350 -39 q 329 -24 309 -13 q 297 -15 285 -15 q 229 -15 182 10 q 136 36 102 78 q 69 121 50 178 q 32 235 32 299 q 32 365 53 425 q 75 485 113 531 q 150 576 202 603 q 253 630 313 630 q 375 630 422 603 q 469 577 501 533 q 533 489 549 432 q 565 375 565 316 q 565 265 552 217 q 538 170 514 130 q 490 89 457 58 q 424 27 385 8 q 409 -3 432 -17 q 455 -31 477 -43 q 500 -56 521 -65 q 542 -73 561 -73 q 566 -73 573 -72 q 580 -70 588 -66 q 596 -62 606 -54 q 617 -47 631 -37 z"},"w":{"x_min":0,"x_max":710,"ha":710,"o":"m 701 428 q 686 425 677 422 q 668 418 663 415 q 658 412 656 408 q 653 404 652 398 l 544 29 q 541 18 532 10 q 523 3 513 -2 q 503 -7 493 -10 q 482 -13 476 -15 l 357 301 l 257 29 q 253 18 245 10 q 237 2 227 -3 q 217 -8 207 -10 q 197 -13 191 -15 l 62 398 q 57 417 9 428 l 9 454 l 208 454 l 208 428 q 185 426 172 423 q 160 419 154 415 q 148 411 148 407 q 148 402 149 398 l 235 114 l 354 454 l 389 454 l 515 114 l 594 398 q 598 409 587 416 q 576 423 542 428 l 542 454 l 701 454 z"},"-":{"x_min":0,"x_max":343,"ha":343,"o":""},"E":{"x_min":0,"x_max":506,"ha":506,"o":"m 478 129 q 476 108 474 88 q 471 68 468 51 q 465 33 463 20 q 460 7 458 0 l 23 0 l 23 26 q 57 33 75 41 q 93 49 93 56 l 93 559 q 93 565 76 574 q 59 583 23 589 l 23 615 l 429 615 l 446 602 q 445 589 443 573 q 441 557 438 540 q 436 523 432 508 q 429 493 426 483 l 399 483 q 397 528 387 547 q 377 566 359 566 l 186 566 l 186 359 l 382 359 l 396 344 q 392 337 386 329 q 381 321 375 313 q 369 305 363 298 q 356 292 351 288 q 344 295 335 300 q 327 305 316 308 q 305 312 290 313 q 275 314 254 314 l 186 314 l 186 80 q 186 73 189 67 q 192 62 203 57 q 214 53 233 51 q 253 49 285 49 l 343 49 q 366 49 382 52 q 397 56 410 65 q 422 75 432 93 q 442 110 452 139 z"},"s":{"x_min":0,"x_max":397,"ha":397,"o":"m 355 138 q 355 104 345 79 q 335 54 319 37 q 303 20 283 10 q 264 0 244 -6 q 224 -11 207 -13 q 189 -15 179 -15 q 166 -15 150 -12 q 134 -10 117 -6 q 101 -1 83 5 q 65 12 49 21 q 46 22 45 37 q 43 52 44 72 q 44 92 46 113 q 49 134 53 147 l 80 142 q 82 119 92 100 q 103 82 119 68 q 135 54 156 46 q 177 38 201 38 q 236 38 256 56 q 277 75 277 107 q 277 127 267 142 q 256 157 240 170 q 223 183 201 194 q 180 205 157 217 q 137 227 117 239 q 98 251 82 266 q 67 281 58 299 q 48 317 48 341 q 48 371 62 395 q 75 419 96 435 q 118 452 146 460 q 174 469 203 469 q 220 469 240 466 q 259 463 277 458 q 295 454 311 447 q 327 440 337 431 q 340 429 338 417 q 336 406 332 392 q 327 378 322 365 q 316 352 312 347 l 288 351 q 269 389 244 406 q 219 422 193 422 q 177 422 165 417 q 152 413 144 405 q 135 397 131 388 q 126 378 126 368 q 126 352 135 340 q 144 327 159 316 q 174 305 194 295 q 213 285 235 273 q 256 262 278 250 q 299 238 316 222 q 333 206 344 186 q 355 166 355 138 z"},">":{"x_min":0,"x_max":444,"ha":444,"o":"m 416 307 q 414 301 412 295 q 411 288 408 281 q 406 273 404 267 q 401 260 399 254 l 42 123 l 28 136 q 30 141 32 148 q 34 155 36 163 q 39 170 41 177 q 43 185 44 189 l 310 287 l 38 387 l 28 406 q 40 416 51 425 q 63 435 73 442 l 403 321 z"},"l":{"x_min":0,"x_max":281,"ha":281,"o":"m 28 0 l 28 26 q 49 29 63 33 q 77 37 85 40 q 93 44 97 48 q 100 52 100 56 l 100 628 q 100 650 97 662 q 95 674 87 680 q 80 687 67 689 q 54 691 33 693 l 33 718 q 53 721 70 725 q 88 729 104 733 q 121 737 137 743 q 153 749 169 757 l 188 739 l 188 56 q 188 48 204 41 q 220 33 260 26 l 260 0 z"},"8":{"x_min":0,"x_max":481,"ha":481,"o":"m 148 464 q 148 443 158 428 q 167 413 184 401 q 201 389 222 378 q 244 368 268 358 q 298 383 312 408 q 325 433 325 458 q 325 483 317 501 q 310 520 297 531 q 284 543 266 548 q 249 554 228 554 q 208 554 193 546 q 178 538 168 525 q 158 513 153 497 q 148 480 148 464 z m 344 151 q 344 182 333 204 q 323 227 305 243 q 287 259 264 271 q 241 283 217 293 q 196 277 181 261 q 167 246 157 229 q 147 212 142 194 q 138 175 138 154 q 138 128 146 107 q 154 86 169 71 q 184 55 204 47 q 225 38 249 38 q 274 38 292 48 q 310 58 321 73 q 333 89 339 109 q 344 129 344 151 z m 438 172 q 438 134 421 100 q 405 66 376 41 q 348 15 309 0 q 271 -15 228 -15 q 183 -15 149 -2 q 114 11 91 32 q 67 54 55 81 q 43 109 43 139 q 43 166 53 190 q 62 214 80 236 q 97 258 121 277 q 145 296 174 312 q 153 323 134 334 q 115 346 100 362 q 85 377 77 398 q 68 419 68 447 q 68 480 83 509 q 97 538 121 559 q 146 580 179 591 q 212 603 250 603 q 290 603 321 593 q 351 583 372 566 q 393 549 403 525 q 414 501 414 473 q 414 453 406 435 q 398 417 385 401 q 371 384 353 369 q 334 353 312 338 q 336 327 359 312 q 382 297 399 278 q 417 258 427 232 q 438 206 438 172 z"},"\\":{"x_min":0,"x_max":469,"ha":469,"o":"m 426 -164 l 412 -159 q 403 -156 394 -152 q 385 -148 377 -145 q 369 -141 364 -138 l 24 770 l 44 781 q 58 777 75 771 q 91 765 105 756 l 444 -150 z"},"e":{"x_min":0,"x_max":469,"ha":469,"o":"m 245 415 q 220 415 200 406 q 181 396 166 379 q 151 361 142 337 q 132 312 128 283 l 322 283 q 333 283 337 287 q 340 291 340 301 q 340 314 336 334 q 333 354 322 372 q 312 390 293 402 q 274 415 245 415 z m 433 271 q 424 261 407 252 q 390 242 374 236 l 126 236 q 126 199 136 166 q 146 133 164 108 q 181 84 206 70 q 231 55 263 55 q 278 55 293 57 q 307 59 324 66 q 340 72 361 85 q 381 98 409 119 q 416 116 421 107 q 427 99 430 95 q 396 60 371 39 q 346 17 323 5 q 300 -7 278 -11 q 256 -15 229 -15 q 190 -15 156 2 q 121 18 94 48 q 68 78 52 120 q 37 162 37 213 q 37 246 44 277 q 51 309 64 336 q 78 363 97 387 q 117 410 142 428 q 154 436 168 443 q 182 451 198 456 q 213 462 229 465 q 245 469 260 469 q 292 469 317 460 q 342 452 362 438 q 381 423 394 404 q 408 384 416 362 q 425 340 429 317 q 433 293 433 271 z"},"b":{"x_min":0,"x_max":518,"ha":518,"o":"m 476 243 q 476 214 468 184 q 459 154 444 126 q 429 97 407 72 q 385 46 358 27 q 331 8 300 -3 q 269 -15 234 -15 q 223 -15 206 -10 q 188 -6 166 2 q 144 10 118 21 q 92 33 66 47 l 66 628 q 66 650 64 663 q 62 675 55 681 q 48 687 36 689 q 24 691 4 693 l 4 718 q 41 726 72 734 q 104 742 135 757 l 140 752 q 143 749 146 746 q 149 743 154 739 l 154 367 q 178 394 202 413 q 227 432 249 445 q 271 457 289 463 q 308 469 322 469 q 356 469 385 453 q 413 438 433 408 q 454 379 465 337 q 476 295 476 243 z m 396 201 q 396 250 386 286 q 377 323 361 347 q 345 372 324 385 q 303 397 279 397 q 271 397 257 393 q 244 389 228 378 q 211 368 192 351 q 173 334 154 309 l 154 102 q 173 88 193 80 q 212 71 229 65 q 246 60 260 57 q 273 55 282 55 q 310 55 332 67 q 353 80 367 100 q 381 120 389 146 q 396 172 396 201 z"},"%":{"x_min":0,"x_max":703,"ha":703,"o":"m 589 141 q 589 176 584 202 q 578 228 569 244 q 560 261 547 270 q 534 278 521 278 q 509 278 499 271 q 489 264 481 250 q 474 235 469 214 q 464 192 464 162 q 464 91 483 57 q 501 24 532 24 q 557 24 573 53 q 589 82 589 141 z m 669 151 q 669 117 658 87 q 646 57 626 34 q 605 12 578 -1 q 551 -15 521 -15 q 490 -15 465 -1 q 439 12 421 34 q 403 57 393 87 q 383 117 383 151 q 383 185 395 215 q 407 245 427 268 q 447 290 474 303 q 501 316 532 316 q 563 316 589 303 q 614 291 632 268 q 650 246 660 215 q 669 185 669 151 z m 177 7 q 173 3 164 0 q 155 -3 145 -6 q 135 -9 125 -12 q 116 -14 109 -16 l 98 0 l 525 582 q 531 585 540 589 q 548 592 558 595 q 567 598 576 600 q 585 603 592 604 l 605 588 z m 240 428 q 240 463 234 489 q 229 515 219 531 q 209 548 197 556 q 185 564 171 564 q 160 564 149 558 q 139 551 131 537 q 124 522 119 501 q 114 479 114 449 q 114 378 133 344 q 151 311 182 311 q 207 311 223 340 q 240 369 240 428 z m 320 438 q 320 404 309 374 q 297 344 277 322 q 256 299 229 286 q 202 272 171 272 q 140 272 115 286 q 89 299 72 322 q 54 344 44 374 q 34 404 34 438 q 34 472 45 502 q 57 532 77 554 q 97 577 124 590 q 151 603 182 603 q 213 603 239 590 q 265 577 283 555 q 301 532 311 502 q 320 472 320 438 z"},"m":{"x_min":0,"x_max":817,"ha":817,"o":"m 583 0 l 583 26 q 618 35 633 42 q 647 49 647 56 l 647 304 q 647 334 644 353 q 641 372 634 383 q 627 394 617 398 q 607 402 593 402 q 564 402 529 374 q 493 346 458 294 l 458 56 q 458 52 461 49 q 464 46 472 42 q 479 39 492 35 q 505 31 524 26 l 524 0 l 306 0 l 306 26 q 341 35 355 42 q 370 49 370 56 l 370 304 q 370 334 367 353 q 364 372 358 383 q 352 394 342 398 q 332 402 317 402 q 288 402 254 374 q 220 346 181 294 l 181 56 q 181 48 198 41 q 215 33 247 26 l 247 0 l 26 0 l 26 26 q 58 34 75 41 q 93 47 93 56 l 93 344 q 93 363 91 375 q 89 386 83 392 q 76 398 63 401 q 49 404 26 407 l 26 431 q 46 434 64 438 q 81 442 96 447 q 112 451 126 457 q 141 462 155 469 l 173 451 l 179 356 q 226 416 270 442 q 313 469 348 469 q 372 469 391 463 q 410 458 424 445 q 438 433 446 414 q 454 395 455 368 l 456 358 q 501 416 545 442 q 588 469 624 469 q 647 469 667 462 q 688 456 703 442 q 718 428 726 407 q 735 386 735 356 l 735 56 q 735 49 750 42 q 765 36 804 26 l 804 0 z"},"#":{"x_min":0,"x_max":481,"ha":481,"o":"m 403 472 l 477 472 l 489 459 q 488 454 486 447 q 484 440 481 434 q 479 427 476 421 q 474 415 472 411 l 385 411 l 351 291 l 425 291 l 436 277 q 435 272 433 266 q 431 260 429 253 q 426 246 424 240 q 422 234 420 229 l 333 229 l 292 83 q 283 76 269 71 q 255 66 242 62 l 229 72 l 274 229 l 185 229 l 143 83 q 134 76 120 71 q 106 66 94 62 l 81 72 l 126 229 l 51 229 l 40 242 q 41 247 43 253 q 45 259 47 266 l 52 279 q 55 286 57 291 l 143 291 l 178 411 l 104 411 l 92 422 q 94 433 100 448 q 105 462 109 472 l 195 472 l 235 611 q 246 619 259 623 q 272 626 283 631 l 297 620 l 254 472 l 343 472 l 383 611 q 394 619 407 623 q 421 626 432 631 l 445 620 z m 202 291 l 292 291 l 326 411 l 236 411 z"},",":{"x_min":0,"x_max":243,"ha":243,"o":"m 205 34 q 205 13 196 -13 q 188 -40 172 -66 q 156 -92 134 -117 q 112 -142 85 -161 l 59 -142 q 73 -126 83 -111 q 93 -95 99 -79 q 106 -63 109 -45 q 113 -27 113 -6 q 113 16 97 30 q 82 44 51 42 l 43 70 q 47 76 63 84 q 78 92 97 100 q 116 107 135 112 q 153 117 163 117 q 187 105 196 85 q 205 65 205 34 z"},"n":{"x_min":0,"x_max":562,"ha":562,"o":"m 326 0 l 326 26 q 361 35 377 42 q 393 49 393 56 l 393 302 q 393 331 390 349 q 387 368 380 378 q 373 389 362 393 q 351 397 334 397 q 320 397 303 391 q 287 385 267 372 q 248 358 226 337 q 204 315 181 283 l 181 56 q 181 48 198 41 q 216 33 248 26 l 248 0 l 26 0 l 26 26 q 58 34 75 41 q 93 47 93 56 l 93 344 q 93 363 92 374 q 90 385 84 392 q 78 398 64 401 q 51 404 26 407 l 26 431 q 63 437 94 446 q 125 455 155 469 l 173 451 l 179 346 q 203 376 229 399 q 255 422 281 437 q 306 453 330 461 q 354 469 373 469 q 394 469 414 462 q 433 456 448 442 q 463 428 472 407 q 481 386 481 356 l 481 56 q 481 52 484 49 q 488 46 496 42 q 503 39 516 35 q 529 31 548 26 l 548 0 z"},"h":{"x_min":0,"x_max":562,"ha":562,"o":"m 326 0 l 326 26 q 361 35 377 42 q 393 49 393 56 l 393 299 q 393 329 390 348 q 386 367 379 378 q 372 389 360 393 q 349 397 333 397 q 301 397 261 368 q 222 339 181 283 l 181 56 q 181 48 198 41 q 216 33 248 26 l 248 0 l 26 0 l 26 26 q 58 34 75 41 q 93 47 93 56 l 93 629 q 93 649 91 661 q 89 672 83 679 q 76 685 63 688 q 49 690 26 693 l 26 718 q 49 722 67 726 q 85 729 101 734 q 117 739 132 744 q 146 750 162 757 l 181 739 l 181 350 q 204 378 230 401 q 256 423 281 438 q 307 453 330 461 q 354 469 373 469 q 394 469 414 462 q 433 456 448 442 q 463 428 472 407 q 481 386 481 356 l 481 56 q 481 52 484 49 q 488 46 496 42 q 503 39 516 35 q 529 31 548 26 l 548 0 z"},"z":{"x_min":0,"x_max":451,"ha":451,"o":"m 414 135 q 414 119 413 100 q 413 80 412 61 q 411 42 410 25 q 409 9 408 0 l 47 0 l 35 22 l 301 405 l 146 405 q 138 405 129 401 q 120 397 112 388 q 104 378 97 362 q 90 346 84 322 l 57 330 l 67 462 q 78 459 86 457 q 95 456 105 455 q 114 454 125 454 l 404 454 l 415 433 l 147 49 l 340 49 q 354 49 365 71 q 375 93 387 141 z"},"B":{"x_min":0,"x_max":567,"ha":567,"o":"m 210 585 q 205 585 198 585 q 192 585 186 585 l 186 356 l 200 356 q 253 356 286 367 q 319 377 338 394 q 356 411 362 432 q 369 453 369 474 q 369 499 361 519 q 353 540 335 554 q 316 569 286 577 q 256 585 210 585 z m 261 315 q 238 315 220 313 q 202 311 186 309 l 186 55 q 186 51 189 48 q 197 45 207 43 q 217 41 227 40 q 238 39 248 39 q 259 38 269 38 q 304 38 332 47 q 359 56 379 72 q 398 87 408 110 q 418 132 418 160 q 418 187 410 214 q 401 242 382 265 q 363 287 333 301 q 304 315 261 315 z m 515 174 q 515 132 498 99 q 481 65 451 42 q 420 19 377 6 q 334 -7 282 -7 q 271 -7 256 -7 q 240 -6 223 -6 q 205 -5 186 -5 q 167 -4 149 -3 q 107 -2 60 0 l 23 0 l 23 26 q 57 33 75 41 q 93 49 93 56 l 93 577 q 74 575 57 572 q 39 570 23 567 l 18 601 q 38 606 65 611 q 91 616 121 620 q 150 625 181 627 q 211 630 239 630 q 290 630 331 621 q 373 612 401 595 q 430 578 445 553 q 460 529 460 498 q 460 445 434 408 q 408 370 361 353 q 394 347 422 331 q 450 315 471 291 q 491 268 503 238 q 515 208 515 174 z"},"K":{"x_min":0,"x_max":592,"ha":592,"o":"m 23 0 l 23 26 q 57 33 75 41 q 93 49 93 56 l 93 559 q 93 565 76 574 q 59 583 23 589 l 23 615 l 255 615 l 255 589 q 222 583 204 574 q 186 566 186 559 l 186 318 l 379 546 q 391 559 394 567 q 397 575 393 579 q 389 583 377 586 q 366 588 347 589 l 347 615 l 557 615 l 557 589 q 541 587 529 585 q 518 583 508 580 q 499 577 491 572 q 483 567 476 559 l 264 329 l 500 68 q 516 50 538 47 q 559 43 584 46 l 588 21 q 574 16 558 11 q 542 6 527 2 q 512 -2 498 -4 q 483 -7 472 -7 q 458 -7 447 -2 q 436 2 426 14 l 186 310 l 186 56 q 186 50 203 41 q 220 33 255 26 l 255 0 z"},"R":{"x_min":0,"x_max":576,"ha":576,"o":"m 220 585 q 211 585 203 585 q 194 585 186 584 l 186 340 q 199 337 208 337 q 218 336 229 336 q 303 336 341 370 q 378 404 378 467 q 378 492 370 514 q 361 536 342 552 q 323 567 293 576 q 263 585 220 585 z m 23 0 l 23 26 q 57 33 75 41 q 93 49 93 56 l 93 575 q 75 573 58 570 q 41 568 23 565 l 18 601 q 42 606 67 612 q 92 617 119 621 q 146 625 176 627 q 206 630 239 630 q 299 630 342 619 q 386 607 414 587 q 442 567 456 540 q 470 513 470 482 q 470 447 460 419 q 450 391 432 368 q 414 346 388 330 q 363 313 333 304 l 482 75 q 490 65 498 59 q 506 52 516 49 q 526 46 538 45 q 551 45 567 46 l 573 21 q 557 15 540 10 q 523 5 507 1 q 491 -2 477 -5 q 463 -7 454 -7 q 440 -7 427 1 q 413 9 406 20 l 261 292 q 255 291 249 291 q 243 291 237 291 q 225 291 212 292 q 199 293 186 296 l 186 56 q 186 50 203 41 q 220 33 255 26 l 255 0 z"},"T":{"x_min":0,"x_max":561,"ha":561,"o":"m 149 0 l 149 26 q 171 30 187 35 q 202 40 211 45 q 220 49 224 53 q 228 58 228 61 l 228 566 l 89 566 q 82 566 75 563 q 69 560 63 550 q 56 540 48 522 q 41 504 30 476 l 4 486 q 5 500 7 517 q 9 535 11 552 q 13 569 16 586 q 19 603 21 615 l 524 615 l 540 602 q 540 589 538 574 q 537 560 534 543 q 532 527 530 510 q 527 494 524 479 l 497 479 q 492 501 489 518 q 485 534 481 545 q 477 556 470 561 q 463 566 453 566 l 320 566 l 320 61 q 320 58 324 54 q 328 50 337 45 q 347 40 362 35 q 377 30 399 26 l 399 0 z"},"P":{"x_min":0,"x_max":538,"ha":538,"o":"m 23 0 l 23 26 q 57 33 75 41 q 93 49 93 56 l 93 576 q 74 574 57 571 q 40 568 23 565 l 18 601 q 42 607 72 612 q 101 618 132 622 q 164 625 196 628 q 228 630 259 630 q 313 630 357 619 q 400 607 432 585 q 463 563 480 531 q 497 499 497 457 q 497 423 487 396 q 478 368 462 346 q 446 324 425 307 q 405 291 382 280 q 360 270 337 264 q 314 259 294 259 q 272 259 252 262 q 231 266 215 273 l 202 315 q 223 306 240 303 q 258 300 275 300 q 297 300 320 309 q 343 317 362 334 q 381 351 393 377 q 405 402 405 437 q 405 475 392 503 q 378 531 355 550 q 332 568 300 577 q 268 585 231 585 q 208 585 186 584 l 186 56 q 186 53 189 49 q 193 46 202 42 q 212 38 228 34 q 245 30 270 26 l 270 0 z"},"|":{"x_min":0,"x_max":229,"ha":229,"o":"m 159 -171 q 154 -175 147 -179 q 141 -183 133 -187 q 125 -190 118 -193 q 110 -196 104 -198 l 85 -186 l 85 791 q 99 799 113 805 q 126 812 140 815 l 159 804 z"},"t":{"x_min":0,"x_max":353,"ha":353,"o":"m 340 63 q 286 24 242 5 q 197 -15 171 -15 q 153 -15 137 -8 q 120 0 108 15 q 95 30 88 54 q 81 78 81 112 l 81 403 l 19 403 l 7 418 l 45 454 l 81 454 l 81 568 l 152 626 l 168 613 l 168 454 l 325 454 l 340 439 q 335 432 329 423 q 322 415 315 408 q 309 400 302 395 q 295 389 291 386 q 279 392 255 397 q 231 403 196 403 l 168 403 l 168 155 q 168 127 171 108 q 174 90 180 78 q 186 67 195 62 q 205 58 217 58 q 234 58 259 65 q 284 72 323 92 z"},"M":{"x_min":0,"x_max":820,"ha":820,"o":"m 771 589 q 757 589 740 585 q 723 581 706 573 l 710 56 q 710 50 728 41 q 746 33 781 26 l 781 0 l 548 0 l 548 26 q 582 33 602 41 q 623 49 623 56 l 618 492 l 407 0 l 375 0 l 163 490 l 159 56 q 159 50 176 41 q 193 33 229 26 l 229 0 l 28 0 l 28 26 q 62 33 80 41 q 98 49 98 56 l 103 571 q 84 581 66 585 q 47 589 33 589 l 33 615 l 183 615 q 188 615 191 614 q 194 612 198 608 q 201 604 205 595 q 209 587 215 574 l 404 145 l 590 574 q 596 589 600 597 q 604 605 608 609 q 611 613 614 614 q 618 615 622 615 l 771 615 z"},"g":{"x_min":0,"x_max":498,"ha":498,"o":"m 333 293 q 333 318 326 341 q 318 364 302 381 q 287 398 264 408 q 241 417 210 417 q 198 417 184 411 q 170 405 158 393 q 146 381 137 364 q 129 346 129 322 q 129 296 137 274 q 144 251 159 234 q 174 217 198 208 q 221 198 252 198 q 267 198 281 204 q 295 209 307 221 q 319 233 326 251 q 333 269 333 293 z m 259 -8 q 239 -6 221 -3 q 204 0 188 3 q 158 -14 141 -29 q 123 -43 114 -54 q 105 -66 103 -75 q 100 -84 100 -92 q 100 -111 113 -128 q 126 -145 148 -158 q 171 -170 201 -178 q 230 -186 264 -186 q 295 -186 320 -177 q 345 -169 362 -155 q 379 -141 389 -121 q 398 -102 398 -79 q 398 -67 392 -56 q 386 -45 371 -36 q 355 -27 329 -20 q 302 -13 259 -8 z m 417 313 q 417 275 400 244 q 383 213 355 191 q 328 169 292 156 q 257 144 220 144 l 217 144 q 195 125 188 113 q 180 101 180 98 q 180 93 185 88 q 189 83 202 78 q 215 73 239 68 q 262 63 300 59 q 355 52 391 41 q 426 29 447 14 q 468 0 477 -19 q 485 -37 485 -56 q 485 -82 475 -105 q 464 -129 446 -150 q 428 -171 404 -188 q 380 -205 352 -217 q 324 -229 294 -236 q 264 -243 234 -243 q 210 -243 185 -240 q 159 -237 135 -230 q 110 -223 88 -213 q 65 -202 49 -187 q 32 -172 22 -154 q 12 -135 12 -111 q 12 -98 17 -85 q 22 -71 36 -56 q 50 -41 75 -22 q 100 -4 140 18 q 110 29 97 42 q 84 56 84 70 q 84 74 87 82 q 90 89 99 99 q 107 109 122 122 q 137 135 160 151 q 135 159 114 172 q 93 185 78 203 q 63 221 55 244 q 46 267 46 294 q 46 330 63 362 q 80 394 107 417 q 134 441 170 455 q 205 469 243 469 q 274 469 301 460 q 327 452 349 437 q 397 442 430 452 q 462 461 483 469 l 494 453 q 489 440 483 427 q 477 414 466 402 q 449 399 431 397 q 413 395 391 394 q 403 376 410 355 q 417 335 417 313 z"},"j":{"x_min":0,"x_max":269,"ha":269,"o":"m 186 50 q 186 -7 177 -46 q 169 -85 156 -112 q 142 -140 124 -158 q 106 -177 87 -193 q 74 -203 59 -212 q 43 -222 28 -229 q 13 -235 -1 -239 q -16 -243 -26 -243 q -43 -243 -59 -239 q -76 -235 -89 -229 q -102 -223 -110 -217 q -119 -210 -119 -206 q -119 -201 -111 -191 q -103 -182 -91 -173 q -80 -163 -68 -155 q -57 -146 -49 -143 q -33 -159 -14 -165 q 6 -171 24 -171 q 38 -171 51 -163 q 64 -154 75 -133 q 85 -111 91 -74 q 98 -37 98 21 l 98 324 q 98 349 97 364 q 96 379 90 387 q 83 396 70 400 q 56 404 31 407 l 31 431 q 53 435 70 439 q 87 443 102 447 q 117 452 132 457 q 146 462 163 469 l 186 469 z m 202 616 q 202 601 197 588 q 192 576 184 566 q 175 557 163 552 q 151 546 137 546 q 114 546 101 559 q 87 571 87 596 q 87 610 93 623 q 98 636 106 645 q 115 654 127 659 q 139 665 152 665 q 175 665 188 653 q 202 641 202 616 z"},"i":{"x_min":0,"x_max":281,"ha":281,"o":"m 33 0 l 33 26 q 66 33 83 41 q 100 49 100 56 l 100 324 q 100 349 99 364 q 99 379 93 388 q 86 396 73 400 q 59 404 33 407 l 33 431 q 68 437 103 447 q 139 457 167 469 l 188 469 l 188 56 q 188 50 204 41 q 220 33 255 26 l 255 0 z m 204 616 q 204 601 199 588 q 194 576 185 566 q 176 557 164 552 q 152 546 139 546 q 115 546 102 559 q 89 571 89 596 q 89 610 94 623 q 100 636 108 645 q 117 654 129 659 q 141 665 154 665 q 177 665 190 653 q 204 641 204 616 z"},"y":{"x_min":0,"x_max":498,"ha":498,"o":"m 489 428 q 475 425 465 422 q 456 419 450 415 q 444 412 441 407 q 438 402 436 395 l 272 -39 q 252 -93 227 -131 q 202 -170 175 -195 q 147 -220 119 -231 q 91 -243 64 -243 q 46 -243 30 -240 q 13 -238 1 -234 q -11 -229 -18 -224 q -25 -219 -25 -215 q -25 -211 -19 -201 q -12 -191 -2 -180 q 7 -168 18 -157 q 29 -146 37 -142 q 60 -156 84 -158 q 108 -160 126 -153 q 135 -150 146 -140 q 157 -131 168 -117 q 180 -103 190 -84 q 201 -66 210 -45 l 224 -11 l 63 395 q 58 409 46 416 q 33 423 9 428 l 9 454 l 208 454 l 208 428 q 189 426 177 423 q 166 421 160 417 q 154 414 154 408 q 153 403 157 395 l 270 106 l 377 395 q 380 402 379 407 q 378 413 373 416 q 367 420 356 423 q 345 425 327 428 l 327 454 l 489 454 z"},"@":{"x_min":0,"x_max":831,"ha":831,"o":"m 500 357 q 494 370 487 380 q 480 390 472 397 q 463 404 453 408 q 442 412 429 412 q 378 412 349 367 q 319 322 319 231 q 319 189 328 157 q 336 125 350 103 q 364 81 381 70 q 398 59 414 59 q 423 59 432 62 q 440 65 450 73 q 459 80 471 93 q 483 106 500 127 z m 794 272 q 794 230 784 192 q 774 155 758 123 q 742 91 720 66 q 698 40 673 22 q 649 4 624 -5 q 598 -15 575 -15 q 562 -15 551 -10 q 539 -5 530 5 q 521 16 514 33 q 507 50 503 74 q 483 48 468 31 q 453 14 438 3 q 424 -7 409 -11 q 394 -15 375 -15 q 350 -15 324 0 q 298 16 278 45 q 257 74 244 117 q 231 160 231 216 q 231 245 238 275 q 244 305 257 333 q 270 361 288 386 q 306 411 329 429 q 353 447 381 458 q 409 469 441 469 q 453 469 462 467 q 472 465 481 460 q 490 456 500 447 q 510 438 523 424 q 541 432 556 443 q 571 454 587 469 l 603 454 q 598 439 595 422 q 592 408 590 389 q 588 370 588 350 l 588 139 q 588 100 600 81 q 612 62 635 62 q 647 62 662 76 q 678 90 691 115 q 705 140 714 174 q 723 209 723 250 q 723 333 702 396 q 682 459 644 502 q 607 545 555 567 q 503 589 441 589 q 391 589 348 576 q 305 564 270 542 q 234 520 207 489 q 179 458 160 420 q 142 383 132 342 q 122 300 122 256 q 122 196 134 145 q 146 94 168 52 q 190 10 221 -23 q 251 -55 288 -77 q 325 -99 367 -111 q 409 -122 453 -122 q 496 -122 536 -114 q 576 -105 610 -92 q 644 -80 669 -65 q 695 -50 709 -38 l 726 -70 q 708 -89 680 -110 q 652 -131 615 -148 q 578 -166 531 -178 q 484 -189 429 -189 q 343 -189 271 -160 q 199 -131 147 -77 q 95 -23 66 54 q 37 131 37 227 q 37 284 52 337 q 67 391 94 439 q 122 486 161 526 q 199 566 246 595 q 293 624 347 640 q 401 656 460 656 q 535 656 596 631 q 658 607 702 559 q 746 511 770 439 q 794 367 794 272 z"},".":{"x_min":0,"x_max":243,"ha":243,"o":"m 195 62 q 195 44 189 29 q 183 14 173 3 q 163 -7 149 -13 q 136 -20 120 -20 q 93 -20 79 -5 q 64 10 64 39 q 64 57 70 71 q 76 86 86 97 q 97 108 110 114 q 124 120 139 120 q 165 120 180 105 q 195 91 195 62 z"},"p":{"x_min":0,"x_max":540,"ha":540,"o":"m 422 208 q 422 252 412 288 q 402 323 386 348 q 370 374 348 387 q 327 400 304 400 q 295 400 283 396 q 271 392 255 382 q 239 371 221 354 q 202 336 181 309 l 181 106 q 204 90 223 80 q 242 70 258 65 q 273 59 287 57 q 300 55 313 55 q 337 55 357 65 q 377 75 392 94 q 406 114 414 142 q 422 170 422 208 z m 503 242 q 503 212 495 182 q 488 151 474 123 q 461 94 443 69 q 425 44 404 25 q 383 7 361 -4 q 338 -15 315 -15 q 287 -15 252 0 q 218 15 181 45 l 181 -178 q 181 -186 199 -194 q 217 -202 263 -208 l 263 -234 l 26 -234 l 26 -208 q 58 -201 75 -194 q 93 -187 93 -178 l 93 344 q 93 362 91 374 q 89 385 83 392 q 76 399 62 403 q 49 406 26 407 l 26 431 q 46 435 63 438 q 80 442 95 447 q 110 451 125 457 q 140 462 155 469 l 173 451 l 178 366 q 203 394 227 413 q 251 433 273 445 q 295 458 313 463 q 332 469 346 469 q 379 469 408 454 q 437 439 458 410 q 479 381 491 339 q 503 296 503 242 z"},"X":{"x_min":0,"x_max":620,"ha":620,"o":"m 373 0 l 373 26 q 394 28 407 31 q 420 34 426 39 q 432 43 431 50 q 431 57 424 67 l 295 255 l 176 67 q 162 45 175 37 q 189 29 234 26 l 234 0 l 14 0 l 14 26 q 46 28 68 38 q 90 47 103 67 l 256 312 l 95 548 q 88 559 81 566 q 74 573 66 577 q 57 582 46 584 q 35 587 19 589 l 19 615 l 254 615 l 254 589 q 212 585 200 577 q 187 569 202 548 l 316 381 l 420 548 q 427 560 427 567 q 427 574 419 578 q 412 583 398 585 q 383 588 361 589 l 361 615 l 583 615 l 583 589 q 565 587 551 585 q 537 582 526 577 q 516 573 508 566 q 500 559 493 548 l 354 326 l 530 67 q 538 57 545 50 q 552 42 561 38 q 570 33 581 31 q 592 28 606 26 l 606 0 z"},"*":{"x_min":0,"x_max":445,"ha":445,"o":"m 241 585 l 361 679 q 366 676 373 671 q 381 666 388 660 q 396 655 403 649 q 410 644 414 640 l 413 618 l 259 554 l 401 497 q 400 491 400 482 q 399 473 398 464 q 397 454 396 446 q 395 437 393 432 l 372 421 l 242 522 l 262 372 q 257 369 249 365 q 241 360 233 357 q 224 353 216 350 q 208 347 203 346 l 183 357 l 205 522 l 85 428 q 80 432 72 437 q 64 442 57 447 q 49 453 43 458 q 36 463 33 467 l 33 490 l 187 553 l 45 611 q 45 617 46 626 q 46 635 47 644 q 48 653 50 662 q 51 670 53 675 l 73 686 l 204 585 l 183 736 q 188 739 197 743 q 205 747 213 751 q 222 754 230 758 q 239 761 244 762 l 263 750 z"},"Y":{"x_min":0,"x_max":601,"ha":601,"o":"m 173 0 l 173 26 q 218 35 235 45 q 252 54 252 61 l 252 261 q 234 301 212 343 q 189 385 166 425 q 143 465 120 500 q 98 534 81 557 q 77 562 71 567 q 66 572 57 575 q 49 579 36 581 q 22 583 2 583 l 0 609 q 14 611 30 613 q 46 615 61 616 q 77 618 90 619 q 104 620 114 620 q 126 620 137 615 q 148 610 156 600 q 174 576 195 544 q 215 513 236 477 q 257 442 277 405 q 296 367 313 332 l 439 557 q 446 570 434 577 q 422 584 385 589 l 385 615 l 582 615 l 582 589 q 548 583 531 576 q 514 569 507 557 l 345 262 l 345 61 q 345 58 349 54 q 353 50 362 45 q 371 40 386 35 q 402 30 425 26 l 425 0 z"},"c":{"x_min":0,"x_max":443,"ha":443,"o":"m 419 93 q 387 56 362 34 q 337 13 315 2 q 293 -9 273 -12 q 252 -15 229 -15 q 192 -15 158 1 q 123 17 96 47 q 69 77 53 120 q 37 163 37 217 q 37 270 56 315 q 75 361 109 395 q 143 429 190 449 q 236 469 291 469 q 307 469 325 466 q 343 463 360 458 q 376 453 390 446 q 404 439 413 430 q 414 424 411 411 q 408 398 403 383 q 397 368 392 355 q 386 341 381 334 l 358 339 q 353 353 344 366 q 335 379 322 390 q 308 400 290 406 q 272 413 249 413 q 225 413 202 402 q 180 391 163 369 q 146 346 135 312 q 125 278 125 232 q 125 191 136 159 q 148 126 167 103 q 187 80 213 68 q 239 55 267 55 q 281 55 293 57 q 305 58 319 64 q 333 70 352 82 q 371 95 397 117 z"},"!":{"x_min":0,"x_max":284,"ha":284,"o":"m 205 62 q 205 44 199 29 q 193 14 183 3 q 173 -7 159 -13 q 146 -20 130 -20 q 103 -20 88 -5 q 74 10 74 39 q 74 57 80 71 q 86 86 96 97 q 106 108 120 114 q 134 120 149 120 q 174 120 189 105 q 205 91 205 62 z m 167 194 q 158 187 148 183 q 139 179 126 175 l 112 185 l 84 678 q 94 684 106 690 q 118 697 130 703 q 143 709 154 714 q 166 719 174 723 l 196 709 z"},"/":{"x_min":0,"x_max":472,"ha":472,"o":"m 108 -138 q 103 -141 94 -145 q 85 -148 76 -152 q 66 -156 56 -159 q 47 -162 41 -164 l 21 -150 l 364 756 q 370 761 379 764 q 387 768 396 771 q 405 774 414 777 q 423 779 430 781 l 449 770 z"},"[":{"x_min":0,"x_max":318,"ha":318,"o":"m 300 -118 q 299 -123 297 -129 l 293 -141 q 292 -147 289 -153 q 287 -159 285 -164 l 66 -164 l 66 781 l 282 781 l 299 768 q 298 762 296 755 q 294 748 292 741 q 291 734 289 729 q 287 723 285 720 l 149 720 l 149 -103 l 282 -103 z"},"6":{"x_min":0,"x_max":481,"ha":481,"o":"m 251 320 q 228 320 200 306 q 172 292 146 262 q 146 204 155 162 q 164 121 180 94 q 197 66 220 53 q 243 41 271 41 q 295 41 312 52 q 328 64 338 83 q 348 102 352 125 q 356 147 356 170 q 356 216 346 245 q 336 274 321 291 q 306 307 287 313 q 269 320 251 320 z m 445 201 q 445 178 439 153 q 434 128 423 104 q 413 81 396 59 q 380 38 359 21 q 338 5 312 -5 q 286 -15 254 -15 q 212 -15 175 3 q 138 21 111 53 q 83 85 67 131 q 51 176 51 231 q 51 300 72 363 q 93 426 136 477 q 179 528 243 562 q 308 597 395 610 l 405 576 q 347 563 303 538 q 259 512 228 479 q 196 445 177 405 q 158 365 151 323 q 167 338 185 348 q 202 359 218 365 q 234 372 249 375 q 264 378 275 378 q 315 378 347 366 q 378 353 400 330 q 422 307 433 274 q 445 241 445 201 z"},"r":{"x_min":0,"x_max":412,"ha":412,"o":"m 393 450 q 397 447 396 430 q 396 414 391 393 q 387 371 381 349 q 375 328 369 314 l 343 314 q 337 354 323 374 q 309 393 289 393 q 278 393 265 386 q 251 378 237 362 q 222 346 208 319 q 193 293 181 254 l 181 56 q 181 48 200 41 q 219 33 265 26 l 265 0 l 26 0 l 26 26 q 58 33 75 40 q 93 47 93 56 l 93 332 q 93 348 92 359 q 91 370 89 376 q 88 383 86 387 q 83 391 82 394 q 78 397 74 399 q 70 401 64 403 q 58 404 49 405 q 40 406 26 407 l 26 431 q 45 435 62 439 q 80 443 95 447 q 111 452 126 457 q 141 462 155 469 l 173 451 l 180 353 q 193 377 209 398 q 225 419 242 435 q 260 451 280 460 q 300 469 321 469 q 338 469 356 464 q 375 460 393 450 z"},"2":{"x_min":0,"x_max":481,"ha":481,"o":"m 416 0 l 60 0 l 45 36 q 103 103 146 155 q 189 207 220 247 q 251 287 272 317 q 292 347 304 371 q 316 395 321 414 q 325 433 325 451 q 325 473 320 492 q 315 511 304 525 q 293 540 276 548 q 259 556 234 556 q 214 556 198 546 q 182 537 171 522 q 160 507 155 489 q 149 471 150 454 q 134 444 115 437 q 96 430 73 427 l 59 448 q 59 474 76 501 q 94 528 123 551 q 152 574 189 588 q 227 603 268 603 q 300 603 327 595 q 354 587 374 570 q 394 554 405 529 q 417 504 417 470 q 417 448 410 426 q 404 404 391 379 q 377 354 356 324 q 334 294 304 257 q 273 219 233 173 q 193 126 143 68 l 344 68 q 352 68 359 72 q 365 76 370 82 q 375 88 379 96 q 383 104 385 113 q 391 132 394 158 l 423 151 z"},"{":{"x_min":0,"x_max":341,"ha":341,"o":"m 324 753 q 305 742 289 727 q 272 712 261 695 q 249 677 242 657 q 235 637 235 614 q 235 595 237 581 q 238 567 240 555 q 243 543 245 532 q 248 521 250 509 q 252 497 254 483 q 255 469 255 451 q 255 430 249 410 q 243 391 231 373 q 219 356 202 342 q 186 328 165 319 q 214 310 235 276 q 255 242 255 188 q 255 160 252 138 q 249 117 245 98 q 242 80 239 61 q 235 42 235 19 q 235 -6 239 -25 q 242 -44 251 -61 q 261 -77 277 -91 q 293 -105 319 -119 l 306 -154 q 263 -137 232 -119 q 201 -102 180 -80 q 160 -58 150 -30 q 140 -2 140 33 q 140 61 143 80 q 146 100 150 118 q 153 136 156 156 q 160 177 160 206 q 160 246 141 265 q 122 284 87 284 l 77 284 q 74 284 72 283 q 69 283 66 282 q 63 282 56 281 l 47 312 q 104 327 132 356 q 160 385 160 421 q 160 440 158 455 q 157 469 155 481 q 152 493 150 503 q 147 514 145 526 q 143 538 141 552 q 140 566 140 586 q 140 619 152 647 q 164 676 187 700 q 209 724 240 744 q 271 765 309 781 z"},"9":{"x_min":0,"x_max":481,"ha":481,"o":"m 240 273 q 271 273 298 291 q 325 308 346 335 q 345 398 334 439 q 324 480 308 505 q 292 529 272 539 q 253 548 234 548 q 211 548 193 539 q 174 529 162 512 q 149 495 142 471 q 136 447 136 418 q 136 374 146 346 q 156 318 172 302 q 187 286 205 280 q 224 273 240 273 z m 439 357 q 439 283 418 219 q 397 155 355 106 q 312 56 247 23 q 183 -9 95 -21 l 85 13 q 151 29 198 55 q 245 80 276 114 q 306 147 322 188 q 338 228 343 274 q 317 247 283 230 q 250 214 215 214 q 175 214 143 228 q 112 241 90 265 q 69 288 58 320 q 46 352 46 388 q 46 425 62 463 q 77 501 104 532 q 131 563 169 583 q 207 603 252 603 q 290 603 324 589 q 358 575 384 545 q 409 515 424 468 q 439 422 439 357 z"}," ":{"x_min":0,"x_max":230,"ha":230,"o":""},"I":{"x_min":0,"x_max":308,"ha":308,"o":"m 33 0 l 33 26 q 66 33 84 41 q 103 49 103 56 l 103 559 q 103 565 85 574 q 68 583 33 589 l 33 615 l 265 615 l 265 589 q 232 583 214 574 q 195 566 195 559 l 195 56 q 195 50 213 41 q 230 33 265 26 l 265 0 z"},"H":{"x_min":0,"x_max":664,"ha":664,"o":"m 23 0 l 23 26 q 57 33 75 41 q 93 49 93 56 l 93 559 q 93 565 76 574 q 59 583 23 589 l 23 615 l 255 615 l 255 589 q 222 583 204 574 q 186 566 186 559 l 186 347 l 469 347 l 469 559 q 469 565 452 574 q 435 583 399 589 l 399 615 l 631 615 l 631 589 q 598 583 580 574 q 562 566 562 559 l 562 56 q 562 50 579 41 q 596 33 631 26 l 631 0 l 399 0 l 399 26 q 433 33 451 41 q 469 49 469 56 l 469 298 l 186 298 l 186 56 q 186 50 203 41 q 220 33 255 26 l 255 0 z"},"4":{"x_min":0,"x_max":481,"ha":481,"o":"m 283 498 l 110 227 l 283 227 z m 440 212 q 430 197 420 187 q 409 177 398 168 l 366 168 l 366 56 q 366 52 369 49 q 372 45 380 42 q 388 38 401 34 q 414 30 434 26 l 434 0 l 181 0 l 181 26 q 212 31 232 36 q 252 41 264 45 q 275 49 279 53 q 283 57 283 61 l 283 168 l 44 168 l 27 186 l 267 572 q 288 581 309 590 q 330 600 347 608 l 366 590 l 366 227 l 428 227 z"},"~":{"x_min":0,"x_max":488,"ha":488,"o":"m 464 378 q 454 354 438 328 q 422 303 403 281 q 384 260 362 247 q 339 233 316 233 q 295 233 272 245 q 250 257 226 272 q 202 287 179 299 q 156 311 135 311 q 111 311 91 292 q 70 273 50 232 l 24 245 q 34 269 50 295 q 66 320 85 342 q 104 363 126 376 q 148 390 172 390 q 194 390 218 378 q 242 366 265 351 q 288 336 310 324 q 333 312 352 312 q 375 312 396 331 q 417 350 438 390 z"},"D":{"x_min":0,"x_max":607,"ha":607,"o":"m 230 585 q 208 585 186 584 l 186 80 q 186 69 189 62 q 196 53 214 49 q 232 45 270 45 q 301 45 336 61 q 371 77 399 109 q 428 142 447 192 q 465 242 465 311 q 465 376 450 427 q 435 478 405 513 q 375 548 331 567 q 287 585 230 585 z m 564 330 q 564 269 552 221 q 540 173 518 136 q 497 99 469 73 q 441 48 410 31 q 378 15 346 8 q 313 0 283 0 l 23 0 l 23 26 q 57 33 75 41 q 93 49 93 56 l 93 575 q 74 573 56 570 q 39 568 23 565 l 18 601 q 41 606 70 612 q 100 617 133 621 q 166 625 199 628 q 233 630 263 630 q 333 630 389 610 q 445 589 484 551 q 523 512 544 457 q 564 401 564 330 z"},"^":{"x_min":0,"x_max":492,"ha":492,"o":"m 443 310 q 431 299 419 291 q 408 284 391 276 l 373 289 l 235 642 l 113 310 q 107 305 101 300 q 94 295 86 290 q 79 286 72 282 q 65 278 60 276 l 49 289 l 206 714 q 212 720 220 726 q 229 732 238 738 q 247 744 255 749 q 264 753 271 757 z"},"0":{"x_min":0,"x_max":481,"ha":481,"o":"m 351 276 q 351 343 342 393 q 332 443 316 477 q 299 511 278 528 q 256 544 232 544 q 208 544 189 531 q 170 519 157 491 q 145 463 138 419 q 131 376 131 315 q 131 248 139 197 q 148 146 164 112 q 179 78 201 61 q 223 44 249 44 q 273 44 292 57 q 312 70 324 98 q 337 126 344 170 q 351 214 351 276 z m 447 294 q 447 231 431 175 q 416 119 387 77 q 359 35 320 10 q 280 -15 232 -15 q 185 -15 148 10 q 111 35 86 77 q 61 119 48 175 q 35 231 35 294 q 35 357 50 413 q 65 469 94 511 q 122 554 161 578 q 201 603 249 603 q 297 603 334 579 q 371 554 396 512 q 421 470 434 414 q 447 357 447 294 z"},"F":{"x_min":0,"x_max":488,"ha":488,"o":"m 23 0 l 23 26 q 57 33 75 41 q 93 49 93 56 l 93 559 q 93 565 76 574 q 59 583 23 589 l 23 615 l 434 615 l 450 602 q 450 589 448 573 q 446 557 443 540 q 440 523 437 508 q 434 493 431 483 l 403 483 q 402 528 392 547 q 382 566 363 566 l 186 566 l 186 359 l 367 359 l 382 344 q 378 337 372 329 q 366 320 360 312 q 354 305 347 298 q 341 292 336 288 q 329 295 321 300 q 312 305 302 308 q 291 312 276 313 q 261 314 240 314 l 186 314 l 186 56 q 186 53 190 49 q 194 46 204 42 q 214 39 230 34 q 246 30 270 26 l 270 0 z"},"`":{"x_min":0,"x_max":319,"ha":319,"o":"m 216 528 q 211 523 202 518 q 192 513 184 510 l 7 694 l 19 717 q 24 718 35 720 q 46 722 59 724 q 72 727 84 729 q 97 730 103 731 z"},"k":{"x_min":0,"x_max":517,"ha":517,"o":"m 26 0 l 26 26 q 58 34 75 41 q 93 47 93 56 l 93 628 q 93 650 90 663 q 88 675 81 681 q 73 687 60 689 q 47 691 26 693 l 26 718 q 64 725 99 734 q 134 743 162 757 l 181 739 l 181 259 l 324 385 q 340 399 344 408 q 348 417 343 421 q 339 425 328 427 q 318 428 305 428 l 305 454 l 501 454 l 501 428 q 480 426 461 419 q 441 413 421 397 l 260 271 l 441 61 q 448 53 455 48 q 462 42 471 40 q 479 37 490 37 q 501 36 516 37 l 519 11 q 504 8 489 5 q 474 2 460 0 q 446 -2 436 -4 q 425 -5 420 -5 q 399 -5 386 1 q 374 7 363 21 l 181 254 l 181 56 q 181 52 182 49 q 184 46 189 43 q 195 40 206 36 q 216 32 234 26 l 234 0 z"},"u":{"x_min":0,"x_max":541,"ha":541,"o":"m 534 45 q 516 33 498 22 q 479 12 463 3 q 447 -5 435 -10 q 422 -15 417 -15 q 408 -15 400 -10 q 393 -5 387 6 q 381 17 377 34 q 373 51 371 76 q 341 47 316 29 q 291 11 270 1 q 250 -8 232 -11 q 215 -15 199 -15 q 176 -15 155 -8 q 134 -2 117 15 q 101 32 91 61 q 81 90 81 136 l 81 344 q 81 367 79 380 q 78 393 72 400 q 66 406 54 409 q 42 411 19 414 l 19 438 q 39 440 56 443 q 73 445 89 449 q 104 453 120 458 q 136 462 154 469 l 168 449 l 168 165 q 168 131 173 110 q 178 88 187 76 q 195 63 208 58 q 221 53 237 53 q 251 53 266 57 q 281 61 297 69 q 313 78 332 93 q 350 107 371 128 l 371 344 q 371 366 369 379 q 367 392 360 399 q 353 407 340 410 q 327 413 304 414 l 304 438 q 344 442 378 451 q 413 459 443 469 l 459 449 l 459 129 q 459 99 461 82 q 463 65 470 61 q 476 57 489 59 q 502 61 527 72 z"},"]":{"x_min":0,"x_max":318,"ha":318,"o":"m 36 -164 l 19 -148 q 19 -143 21 -136 q 22 -129 24 -123 q 26 -117 29 -111 q 31 -105 32 -103 l 168 -103 l 168 720 l 36 720 l 18 734 q 19 745 24 759 q 29 773 32 781 l 251 781 l 251 -164 z"},"U":{"x_min":0,"x_max":659,"ha":659,"o":"m 629 589 q 596 583 577 574 q 559 566 559 559 l 559 256 q 559 192 543 142 q 526 91 496 57 q 466 22 423 4 q 380 -15 328 -15 q 277 -15 234 -1 q 191 13 160 42 q 128 70 111 114 q 93 157 93 217 l 93 559 q 93 565 76 574 q 59 583 23 589 l 23 615 l 255 615 l 255 589 q 222 583 204 574 q 186 566 186 559 l 186 244 q 186 150 226 98 q 267 46 351 46 q 385 46 411 63 q 437 79 454 106 q 471 133 480 167 q 488 202 488 238 l 488 559 q 488 565 471 574 q 454 583 419 589 l 419 615 l 629 615 z"},"o":{"x_min":0,"x_max":510,"ha":510,"o":"m 382 220 q 382 258 371 293 q 360 328 342 355 q 323 381 300 397 q 276 413 251 413 q 216 413 192 399 q 169 385 155 360 q 141 336 135 303 q 128 270 128 231 q 128 192 140 158 q 152 124 171 98 q 190 72 214 57 q 237 42 260 42 q 292 42 316 54 q 339 66 354 89 q 369 112 375 146 q 382 179 382 220 z m 474 237 q 474 188 455 143 q 437 97 406 62 q 375 27 333 6 q 292 -15 246 -15 q 198 -15 160 3 q 121 21 94 51 q 66 82 52 125 q 37 167 37 217 q 37 249 45 280 q 53 312 67 340 q 82 368 103 391 q 124 415 149 432 q 174 449 204 459 q 233 469 265 469 q 312 469 351 451 q 389 434 417 403 q 444 372 459 329 q 474 287 474 237 z"},"N":{"x_min":0,"x_max":654,"ha":654,"o":"m 23 0 l 23 26 q 60 30 76 40 q 93 49 93 56 l 93 556 q 77 570 59 578 q 42 586 23 589 l 23 615 l 138 615 q 145 615 150 614 q 154 613 159 609 q 164 605 170 597 q 175 590 185 577 l 498 144 l 498 559 q 498 562 495 566 q 491 570 483 574 q 475 579 462 583 q 448 586 429 589 l 429 615 l 631 615 l 631 589 q 596 584 579 575 q 562 566 562 559 l 562 -15 q 530 -11 511 -2 q 492 8 484 19 l 156 473 l 156 56 q 156 53 160 49 q 164 44 172 40 q 181 36 194 32 q 207 28 226 26 l 226 0 z"},"+":{"x_min":0,"x_max":414,"ha":414,"o":"m 238 113 q 228 108 214 104 q 201 100 190 97 l 177 109 l 177 245 l 42 245 l 28 258 q 31 268 36 281 q 42 294 46 304 l 177 304 l 177 437 q 186 440 200 445 q 214 450 225 452 l 238 440 l 238 304 l 372 304 l 385 291 q 384 286 382 280 q 379 273 377 267 q 375 261 372 255 q 370 249 368 245 l 238 245 z"},"G":{"x_min":0,"x_max":589,"ha":589,"o":"m 518 580 q 521 578 516 568 q 511 559 503 547 q 494 536 484 525 q 475 514 468 508 l 447 513 q 431 531 414 542 q 397 554 379 561 q 361 568 340 571 q 320 574 297 574 q 285 574 267 568 q 250 563 230 551 q 211 539 192 519 q 173 499 158 469 q 143 440 133 401 q 124 362 124 311 q 124 244 141 195 q 158 146 186 114 q 213 82 249 66 q 284 50 320 50 q 353 50 380 57 q 407 63 429 75 l 429 234 q 429 240 425 245 q 421 250 411 255 q 401 260 383 265 q 364 270 335 274 l 335 300 l 566 300 l 566 274 q 539 268 528 257 q 517 246 517 234 l 517 78 q 480 48 451 30 q 421 12 396 2 q 371 -8 349 -11 q 326 -15 304 -15 q 254 -15 205 4 q 156 22 118 59 q 79 97 55 153 q 32 208 32 284 q 32 365 58 429 q 83 494 128 538 q 173 583 233 606 q 293 630 362 630 q 378 630 399 626 q 419 623 440 617 q 461 610 482 601 q 502 592 518 580 z"},"q":{"x_min":0,"x_max":526,"ha":526,"o":"m 244 59 q 260 59 275 64 q 290 70 304 80 q 319 89 333 102 q 348 115 363 129 l 363 352 q 354 365 343 376 q 331 388 317 396 q 303 403 287 407 q 271 412 255 412 q 229 412 206 401 q 182 390 164 369 q 146 347 135 314 q 125 281 125 237 q 125 195 136 162 q 147 129 164 106 q 182 83 203 71 q 224 59 244 59 z m 280 -234 l 280 -208 q 326 -202 344 -194 q 363 -187 363 -178 l 363 77 q 343 55 325 38 q 306 21 287 9 q 268 -3 247 -9 q 227 -15 202 -15 q 174 -15 145 1 q 116 17 92 47 q 67 77 52 120 q 37 163 37 217 q 37 260 49 295 q 62 331 81 358 q 100 385 121 404 q 143 423 160 434 q 188 449 217 459 q 247 469 269 469 q 283 469 296 467 q 309 465 323 460 q 337 455 352 446 q 367 436 384 421 q 393 426 402 432 q 412 439 421 446 q 430 452 437 458 q 445 464 449 469 l 466 453 q 461 438 458 422 q 455 408 453 388 q 451 369 451 347 l 451 -178 q 451 -182 454 -186 q 458 -190 465 -194 q 473 -198 486 -201 q 499 -205 517 -208 l 517 -234 z"},"d":{"x_min":0,"x_max":534,"ha":534,"o":"m 528 46 q 482 16 452 0 q 421 -15 407 -15 q 390 -15 380 7 q 369 29 365 79 q 345 56 327 39 q 309 21 290 10 q 271 -2 250 -9 q 230 -15 206 -15 q 177 -15 147 1 q 117 17 92 47 q 68 77 52 120 q 37 163 37 217 q 37 247 44 277 q 52 307 66 335 q 81 363 101 387 q 122 412 148 430 q 174 448 204 458 q 235 469 269 469 q 292 469 315 463 q 337 458 364 439 l 364 617 q 364 644 363 660 q 361 676 355 684 q 348 693 334 696 q 320 699 294 701 l 294 725 q 339 730 375 740 q 410 749 436 757 l 452 741 l 452 131 q 452 114 452 102 q 453 90 455 82 q 456 74 458 69 q 460 64 463 62 q 465 59 469 58 q 473 58 479 59 q 486 60 495 63 q 505 66 519 72 z m 364 128 l 364 353 q 347 381 319 396 q 291 412 256 412 q 228 412 203 401 q 179 390 162 368 q 144 346 134 313 q 125 280 125 236 q 125 195 136 162 q 147 129 165 106 q 182 83 204 71 q 225 59 245 59 q 261 59 276 64 q 291 70 305 79 q 320 89 334 102 q 349 114 364 128 z"},"1":{"x_min":0,"x_max":481,"ha":481,"o":"m 81 0 l 81 31 q 119 35 144 41 q 169 46 185 52 q 200 58 206 64 q 212 69 212 75 l 212 454 q 212 474 211 484 q 209 495 204 502 q 201 505 193 507 q 185 509 170 508 q 155 508 132 505 q 109 502 77 495 l 65 525 q 86 530 116 541 q 146 551 177 563 q 208 575 237 587 q 265 599 281 608 l 300 590 l 300 75 q 300 70 306 64 q 311 59 325 53 q 338 47 362 41 q 386 35 422 31 l 422 0 z"},"5":{"x_min":0,"x_max":481,"ha":481,"o":"m 422 200 q 422 158 409 119 q 396 80 370 50 q 345 21 307 3 q 270 -15 220 -15 q 174 -15 127 3 q 81 21 38 60 l 58 96 q 83 78 105 67 q 127 56 145 50 q 164 43 179 41 q 195 39 209 39 q 238 39 261 51 q 284 62 299 81 q 314 101 322 126 q 330 151 330 179 q 330 212 322 239 q 313 266 297 285 q 281 304 257 314 q 233 324 202 324 q 175 324 145 313 q 116 303 90 283 l 67 299 q 70 317 74 341 q 78 364 82 391 q 86 417 90 445 q 94 472 98 499 q 101 525 104 548 q 106 571 107 588 l 334 588 q 349 588 359 590 q 370 591 378 593 q 387 595 394 597 l 409 582 q 404 574 396 564 q 389 555 380 546 q 372 537 364 529 q 356 521 351 517 l 154 517 q 153 502 151 481 q 149 460 146 439 q 143 417 139 398 q 136 379 134 368 q 155 375 181 379 q 208 383 235 383 q 281 383 316 368 q 351 353 374 328 q 398 302 410 269 q 422 236 422 200 z"}}}
